G04 GTS*
%FSLAX46Y46*%
%MOMM*%
%LPD*%
%ADD10R,0.9750X0.3000*%
%ADD11R,0.3000X0.9750*%
D10*
X18562500Y25400000D03*
D10*
X18562500Y25800000D03*
D10*
X18562500Y26200000D03*
D10*
X18562500Y26600000D03*
D10*
X18562500Y27000000D03*
D10*
X18562500Y27400000D03*
D10*
X18562500Y27800000D03*
D10*
X18562500Y28200000D03*
D10*
X18562500Y28600000D03*
D10*
X18562500Y29000000D03*
D10*
X18562500Y29400000D03*
D10*
X18562500Y29800000D03*
D10*
X18562500Y30200000D03*
D10*
X18562500Y30600000D03*
D11*
X19400000Y31437500D03*
D11*
X19800000Y31437500D03*
D11*
X20200000Y31437500D03*
D11*
X20600000Y31437500D03*
D11*
X21000000Y31437500D03*
D11*
X21400000Y31437500D03*
D11*
X21800000Y31437500D03*
D11*
X22200000Y31437500D03*
D11*
X22600000Y31437500D03*
D11*
X23000000Y31437500D03*
D11*
X23400000Y31437500D03*
D11*
X23800000Y31437500D03*
D11*
X24200000Y31437500D03*
D11*
X24600000Y31437500D03*
D10*
X25437500Y30600000D03*
D10*
X25437500Y30200000D03*
D10*
X25437500Y29800000D03*
D10*
X25437500Y29400000D03*
D10*
X25437500Y29000000D03*
D10*
X25437500Y28600000D03*
D10*
X25437500Y28200000D03*
D10*
X25437500Y27800000D03*
D10*
X25437500Y27400000D03*
D10*
X25437500Y27000000D03*
D10*
X25437500Y26600000D03*
D10*
X25437500Y26200000D03*
D10*
X25437500Y25800000D03*
D10*
X25437500Y25400000D03*
D11*
X24600000Y24562500D03*
D11*
X24200000Y24562500D03*
D11*
X23800000Y24562500D03*
D11*
X23400000Y24562500D03*
D11*
X23000000Y24562500D03*
D11*
X22600000Y24562500D03*
D11*
X22200000Y24562500D03*
D11*
X21800000Y24562500D03*
D11*
X21400000Y24562500D03*
D11*
X21000000Y24562500D03*
D11*
X20600000Y24562500D03*
D11*
X20200000Y24562500D03*
D11*
X19800000Y24562500D03*
D11*
X19400000Y24562500D03*
M02*
