M48
METRIC,TZ
T01C0.400
T02C0.800
T03C0.900
T04C1.200
T05C1.500
%
G05
T02
X93.500Y58.000
X93.500Y60.540
X93.500Y63.080
X93.500Y65.620
X93.500Y68.160
X93.500Y70.700
X93.500Y73.240
X93.500Y75.780
T03
X96.000Y18.000
X98.540Y18.000
X101.080Y18.000
X103.620Y18.000
X96.000Y38.000
X98.540Y38.000
X101.080Y38.000
X103.620Y38.000
X96.000Y48.000
X98.540Y48.000
X101.080Y48.000
T04
X18.000Y62.000
X10.000Y70.000
X18.000Y78.000
X26.000Y70.000
X78.000Y58.000
X90.000Y54.000
X102.000Y58.000
X114.000Y62.000
X78.000Y70.000
X90.000Y66.000
X102.000Y70.000
X114.000Y74.000
X48.000Y54.000
X60.000Y54.000
X48.000Y46.000
X60.000Y46.000
X36.000Y70.000
X66.000Y70.000
X66.000Y78.000
T01
X21.400Y62.000
X13.400Y70.000
X21.400Y78.000
X29.400Y70.000
X81.400Y58.000
X93.400Y54.000
X105.400Y58.000
X117.400Y62.000
X81.400Y70.000
X93.400Y66.000
X105.400Y70.000
X117.400Y74.000
X51.400Y54.000
X63.400Y54.000
X51.400Y46.000
X63.400Y46.000
X39.400Y70.000
X69.400Y70.000
X69.400Y78.000
T05
X12.000Y12.000
X20.000Y12.000
M30
