G04 GTL*
%FSLAX46Y46*%
%MOMM*%
%LPD*%
%ADD10R,6.5000X0.6000*%
%ADD11R,0.8750X0.2000*%
%ADD12R,0.2000X0.8750*%
%ADD13R,1.6000X0.5500*%
%ADD14R,1.2000X1.1000*%
%ADD15R,1.5000X1.2000*%
%ADD16R,3.0000X1.6000*%
%ADD17C,1.6000*%
%ADD18C,1.7000*%
%ADD19C,5.2000*%
%ADD20C,0.9000*%
%ADD21C,0.2500*%
%ADD22C,0.3000*%
%ADD23C,3.2000*%
D10*
X4000000Y26500000D03*
D10*
X4000000Y29500000D03*
D11*
X18562500Y25400000D03*
D11*
X18562500Y25800000D03*
D11*
X18562500Y26200000D03*
D11*
X18562500Y26600000D03*
D11*
X18562500Y27000000D03*
D11*
X18562500Y27400000D03*
D11*
X18562500Y27800000D03*
D11*
X18562500Y28200000D03*
D11*
X18562500Y28600000D03*
D11*
X18562500Y29000000D03*
D11*
X18562500Y29400000D03*
D11*
X18562500Y29800000D03*
D11*
X18562500Y30200000D03*
D11*
X18562500Y30600000D03*
D12*
X19400000Y31437500D03*
D12*
X19800000Y31437500D03*
D12*
X20200000Y31437500D03*
D12*
X20600000Y31437500D03*
D12*
X21000000Y31437500D03*
D12*
X21400000Y31437500D03*
D12*
X21800000Y31437500D03*
D12*
X22200000Y31437500D03*
D12*
X22600000Y31437500D03*
D12*
X23000000Y31437500D03*
D12*
X23400000Y31437500D03*
D12*
X23800000Y31437500D03*
D12*
X24200000Y31437500D03*
D12*
X24600000Y31437500D03*
D11*
X25437500Y30600000D03*
D11*
X25437500Y30200000D03*
D11*
X25437500Y29800000D03*
D11*
X25437500Y29400000D03*
D11*
X25437500Y29000000D03*
D11*
X25437500Y28600000D03*
D11*
X25437500Y28200000D03*
D11*
X25437500Y27800000D03*
D11*
X25437500Y27400000D03*
D11*
X25437500Y27000000D03*
D11*
X25437500Y26600000D03*
D11*
X25437500Y26200000D03*
D11*
X25437500Y25800000D03*
D11*
X25437500Y25400000D03*
D12*
X24600000Y24562500D03*
D12*
X24200000Y24562500D03*
D12*
X23800000Y24562500D03*
D12*
X23400000Y24562500D03*
D12*
X23000000Y24562500D03*
D12*
X22600000Y24562500D03*
D12*
X22200000Y24562500D03*
D12*
X21800000Y24562500D03*
D12*
X21400000Y24562500D03*
D12*
X21000000Y24562500D03*
D12*
X20600000Y24562500D03*
D12*
X20200000Y24562500D03*
D12*
X19800000Y24562500D03*
D12*
X19400000Y24562500D03*
D13*
X33520000Y26100000D03*
D13*
X33520000Y27370000D03*
D13*
X33520000Y28640000D03*
D13*
X33520000Y29910000D03*
D13*
X38480000Y26100000D03*
D13*
X38480000Y27370000D03*
D13*
X38480000Y28640000D03*
D13*
X38480000Y29910000D03*
D14*
X16300000Y17750000D03*
D14*
X18000000Y17750000D03*
D15*
X9200000Y39700000D03*
D16*
X11200000Y39700000D03*
D15*
X13200000Y39700000D03*
D17*
X93500000Y58000000D03*
D17*
X93500000Y60540000D03*
D17*
X93500000Y63080000D03*
D17*
X93500000Y65620000D03*
D17*
X93500000Y68160000D03*
D17*
X93500000Y70700000D03*
D17*
X93500000Y73240000D03*
D17*
X93500000Y75780000D03*
D18*
X96000000Y18000000D03*
D18*
X98540000Y18000000D03*
D18*
X101080000Y18000000D03*
D18*
X103620000Y18000000D03*
D18*
X96000000Y38000000D03*
D18*
X98540000Y38000000D03*
D18*
X101080000Y38000000D03*
D18*
X103620000Y38000000D03*
D18*
X96000000Y48000000D03*
D18*
X98540000Y48000000D03*
D18*
X101080000Y48000000D03*
D19*
X18000000Y62000000D03*
D20*
X21400000Y62000000D03*
D21*
X18000000Y62000000D02*
X30000000Y28000000D01*
D19*
X10000000Y70000000D03*
D20*
X13400000Y70000000D03*
D21*
X10000000Y70000000D02*
X30000000Y28000000D01*
D19*
X18000000Y78000000D03*
D20*
X21400000Y78000000D03*
D21*
X18000000Y78000000D02*
X30000000Y28000000D01*
D19*
X26000000Y70000000D03*
D20*
X29400000Y70000000D03*
D21*
X26000000Y70000000D02*
X30000000Y28000000D01*
D19*
X78000000Y58000000D03*
D20*
X81400000Y58000000D03*
D21*
X78000000Y58000000D02*
X30000000Y28000000D01*
D19*
X90000000Y54000000D03*
D20*
X93400000Y54000000D03*
D21*
X90000000Y54000000D02*
X30000000Y28000000D01*
D19*
X102000000Y58000000D03*
D20*
X105400000Y58000000D03*
D21*
X102000000Y58000000D02*
X30000000Y28000000D01*
D19*
X114000000Y62000000D03*
D20*
X117400000Y62000000D03*
D21*
X114000000Y62000000D02*
X30000000Y28000000D01*
D19*
X78000000Y70000000D03*
D20*
X81400000Y70000000D03*
D21*
X78000000Y70000000D02*
X30000000Y28000000D01*
D19*
X90000000Y66000000D03*
D20*
X93400000Y66000000D03*
D21*
X90000000Y66000000D02*
X30000000Y28000000D01*
D19*
X102000000Y70000000D03*
D20*
X105400000Y70000000D03*
D21*
X102000000Y70000000D02*
X30000000Y28000000D01*
D19*
X114000000Y74000000D03*
D20*
X117400000Y74000000D03*
D21*
X114000000Y74000000D02*
X30000000Y28000000D01*
D19*
X48000000Y54000000D03*
D20*
X51400000Y54000000D03*
D21*
X48000000Y54000000D02*
X30000000Y28000000D01*
D19*
X60000000Y54000000D03*
D20*
X63400000Y54000000D03*
D21*
X60000000Y54000000D02*
X30000000Y28000000D01*
D19*
X48000000Y46000000D03*
D20*
X51400000Y46000000D03*
D21*
X48000000Y46000000D02*
X30000000Y28000000D01*
D19*
X60000000Y46000000D03*
D20*
X63400000Y46000000D03*
D21*
X60000000Y46000000D02*
X30000000Y28000000D01*
D19*
X36000000Y70000000D03*
D20*
X39400000Y70000000D03*
D21*
X36000000Y70000000D02*
X30000000Y28000000D01*
D19*
X66000000Y70000000D03*
D20*
X69400000Y70000000D03*
D21*
X66000000Y70000000D02*
X30000000Y28000000D01*
D19*
X66000000Y78000000D03*
D20*
X69400000Y78000000D03*
D21*
X66000000Y78000000D02*
X30000000Y28000000D01*
D22*
X26000000Y28000000D02*
X93500000Y58000000D01*
D22*
X26000000Y28000000D02*
X93500000Y58000000D01*
D22*
X26000000Y28000000D02*
X93500000Y58000000D01*
D22*
X26000000Y28000000D02*
X93500000Y58000000D01*
D21*
X22000000Y28000000D02*
X100000000Y18000000D01*
D23*
X12000000Y12000000D03*
D23*
X20000000Y12000000D03*
M02*
