G04 GTL*
%FSLAX46Y46*%
%MOMM*%
%LPD*%
%ADD10R,4.5000X0.5000*%
%ADD11R,0.8750X0.2000*%
%ADD12R,0.2000X0.8750*%
%ADD13C,1.5000*%
D10*
X3000000Y6000000D03*
D10*
X3000000Y7100000D03*
D10*
X3000000Y8200000D03*
D10*
X3000000Y9300000D03*
D10*
X3000000Y10400000D03*
D10*
X3000000Y11500000D03*
D11*
X12062500Y6400000D03*
D11*
X12062500Y6800000D03*
D11*
X12062500Y7200000D03*
D11*
X12062500Y7600000D03*
D11*
X12062500Y8000000D03*
D11*
X12062500Y8400000D03*
D11*
X12062500Y8800000D03*
D11*
X12062500Y9200000D03*
D11*
X12062500Y9600000D03*
D11*
X12062500Y10000000D03*
D11*
X12062500Y10400000D03*
D11*
X12062500Y10800000D03*
D11*
X12062500Y11200000D03*
D11*
X12062500Y11600000D03*
D12*
X12900000Y12437500D03*
D12*
X13300000Y12437500D03*
D12*
X13700000Y12437500D03*
D12*
X14100000Y12437500D03*
D12*
X14500000Y12437500D03*
D12*
X14900000Y12437500D03*
D12*
X15300000Y12437500D03*
D12*
X15700000Y12437500D03*
D12*
X16100000Y12437500D03*
D12*
X16500000Y12437500D03*
D12*
X16900000Y12437500D03*
D12*
X17300000Y12437500D03*
D12*
X17700000Y12437500D03*
D12*
X18100000Y12437500D03*
D11*
X18937500Y11600000D03*
D11*
X18937500Y11200000D03*
D11*
X18937500Y10800000D03*
D11*
X18937500Y10400000D03*
D11*
X18937500Y10000000D03*
D11*
X18937500Y9600000D03*
D11*
X18937500Y9200000D03*
D11*
X18937500Y8800000D03*
D11*
X18937500Y8400000D03*
D11*
X18937500Y8000000D03*
D11*
X18937500Y7600000D03*
D11*
X18937500Y7200000D03*
D11*
X18937500Y6800000D03*
D11*
X18937500Y6400000D03*
D12*
X18100000Y5562500D03*
D12*
X17700000Y5562500D03*
D12*
X17300000Y5562500D03*
D12*
X16900000Y5562500D03*
D12*
X16500000Y5562500D03*
D12*
X16100000Y5562500D03*
D12*
X15700000Y5562500D03*
D12*
X15300000Y5562500D03*
D12*
X14900000Y5562500D03*
D12*
X14500000Y5562500D03*
D12*
X14100000Y5562500D03*
D12*
X13700000Y5562500D03*
D12*
X13300000Y5562500D03*
D12*
X12900000Y5562500D03*
D13*
X30500000Y2500000D03*
D13*
X30500000Y4200000D03*
D13*
X30500000Y5900000D03*
D13*
X30500000Y7600000D03*
D13*
X30500000Y9300000D03*
D13*
X30500000Y11000000D03*
D13*
X30500000Y12700000D03*
D13*
X30500000Y14400000D03*
M02*
